<svg width="30" height="17" viewBox="0 0 30 17" fill="none" xmlns="http://www.w3.org/2000/svg">
<path d="M25.8192 10.8737C26.8144 11.8276 27.8646 12.725 28.7572 13.775C29.1515 14.2417 29.5247 14.7231 29.8103 15.2647C30.215 16.0345 29.8484 16.8816 29.1454 16.9275L24.7749 16.9256C23.6477 17.0174 22.7484 16.5719 21.9923 15.8152C21.3872 15.2101 20.8268 14.5662 20.245 13.9406C20.0065 13.685 19.7568 13.4444 19.4586 13.2543C18.862 12.8741 18.3441 12.9905 18.0031 13.6014C17.6559 14.2227 17.5771 14.9107 17.543 15.6032C17.4962 16.6135 17.1851 16.8792 16.1513 16.9254C13.942 17.0277 11.8453 16.6996 9.8975 15.6054C8.18024 14.6409 6.84864 13.2791 5.68954 11.7375C3.43293 8.73576 1.70471 5.43722 0.151512 2.04629C-0.198116 1.28232 0.0575865 0.87223 0.916217 0.857676C2.34197 0.830467 3.76756 0.832423 5.19501 0.855721C5.77451 0.864061 6.15812 1.19034 6.38189 1.72778C7.15327 3.58989 8.09716 5.36151 9.28192 7.00365C9.59744 7.44083 9.91918 7.87807 10.3773 8.18577C10.8841 8.52648 11.27 8.41356 11.5084 7.85926C11.6597 7.50779 11.726 7.12923 11.7601 6.75285C11.873 5.45781 11.8879 4.16496 11.6898 2.87447C11.5682 2.06907 11.1061 1.54768 10.2875 1.3953C9.86979 1.31758 9.93196 1.16497 10.1342 0.930904C10.4855 0.527201 10.8159 0.275879 11.4745 0.275879H16.4139C17.1915 0.426534 17.3641 0.769492 17.4706 1.53761L17.4748 6.92398C17.4663 7.22132 17.6261 8.1038 18.1717 8.30059C18.6083 8.44071 18.8961 8.09776 19.1582 7.82596C20.3408 6.59374 21.1848 5.13746 21.9388 3.62953C22.2735 2.96645 22.5612 2.27788 22.8401 1.58984C23.0467 1.07932 23.3709 0.828109 23.9566 0.839211L28.7104 0.843353C28.8514 0.843353 28.994 0.845366 29.1306 0.868318C29.9316 1.00235 30.1511 1.34065 29.9037 2.10859C29.5139 3.31343 28.7554 4.31751 28.0138 5.32619C27.221 6.4031 26.3731 7.44319 25.5869 8.52648C24.8646 9.51589 24.922 10.0145 25.8192 10.8737Z" fill="#436EAB"/>
</svg>
